<svg width="144" height="28" viewBox="0 0 144 28" fill="none" xmlns="http://www.w3.org/2000/svg">
<path d="M33.5 5.5L43.4593 22.75H23.5407L33.5 5.5Z" fill="#FDD655" stroke="white"/>
<circle cx="24" cy="14.5" r="9.5" fill="#8969AC" stroke="white"/>
<circle cx="14" cy="14.5" r="9.5" fill="#4E5986" stroke="white"/>
<path d="M43.4844 7.5H46.7578L50.6719 14.5781H50.8281L54.7422 7.5H58.0156L52.1953 17.5313V23.5H49.3047V17.5313L43.4844 7.5ZM72.3629 15.5C72.3629 17.224 72.04 18.7005 71.3941 19.9297C70.7535 21.1536 69.8785 22.0911 68.7691 22.7422C67.665 23.3932 66.4124 23.7187 65.0113 23.7187C63.6103 23.7187 62.3551 23.3932 61.2457 22.7422C60.1415 22.0859 59.2665 21.1458 58.6207 19.9219C57.9801 18.6927 57.6598 17.2187 57.6598 15.5C57.6598 13.776 57.9801 12.3021 58.6207 11.0781C59.2665 9.84896 60.1415 8.90885 61.2457 8.25781C62.3551 7.60677 63.6103 7.28125 65.0113 7.28125C66.4124 7.28125 67.665 7.60677 68.7691 8.25781C69.8785 8.90885 70.7535 9.84896 71.3941 11.0781C72.04 12.3021 72.3629 13.776 72.3629 15.5ZM69.4488 15.5C69.4488 14.2865 69.2587 13.263 68.8785 12.4297C68.5035 11.5911 67.9827 10.9583 67.316 10.5313C66.6493 10.099 65.8811 9.88281 65.0113 9.88281C64.1415 9.88281 63.3733 10.099 62.7066 10.5313C62.04 10.9583 61.5165 11.5911 61.1363 12.4297C60.7613 13.263 60.5738 14.2865 60.5738 15.5C60.5738 16.7135 60.7613 17.7396 61.1363 18.5781C61.5165 19.4115 62.04 20.0443 62.7066 20.4766C63.3733 20.9036 64.1415 21.1172 65.0113 21.1172C65.8811 21.1172 66.6493 20.9036 67.316 20.4766C67.9827 20.0443 68.5035 19.4115 68.8785 18.5781C69.2587 17.7396 69.4488 16.7135 69.4488 15.5ZM84.0891 7.5H86.9875V17.9531C86.9875 19.099 86.7167 20.1068 86.175 20.9766C85.6385 21.8464 84.8833 22.526 83.9094 23.0156C82.9354 23.5 81.7974 23.7422 80.4953 23.7422C79.188 23.7422 78.0474 23.5 77.0734 23.0156C76.0995 22.526 75.3443 21.8464 74.8078 20.9766C74.2714 20.1068 74.0031 19.099 74.0031 17.9531V7.5H76.9016V17.7109C76.9016 18.3776 77.0474 18.9714 77.3391 19.4922C77.6359 20.013 78.0526 20.4219 78.5891 20.7188C79.1255 21.0104 79.7609 21.1562 80.4953 21.1562C81.2297 21.1562 81.8651 21.0104 82.4016 20.7188C82.9432 20.4219 83.3599 20.013 83.6516 19.4922C83.9432 18.9714 84.0891 18.3776 84.0891 17.7109V7.5ZM89.0379 23.5V7.5H95.0379C96.2671 7.5 97.2983 7.71354 98.1316 8.14062C98.9702 8.56771 99.603 9.16667 100.03 9.9375C100.462 10.7031 100.679 11.5964 100.679 12.6172C100.679 13.6432 100.46 14.5339 100.022 15.2891C99.59 16.0391 98.952 16.6198 98.1082 17.0312C97.2645 17.4375 96.228 17.6406 94.9988 17.6406H90.7254V15.2344H94.6082C95.327 15.2344 95.9155 15.1354 96.3738 14.9375C96.8322 14.7344 97.1707 14.4401 97.3895 14.0547C97.6134 13.6641 97.7254 13.1849 97.7254 12.6172C97.7254 12.0495 97.6134 11.5651 97.3895 11.1641C97.1655 10.7578 96.8244 10.4505 96.366 10.2422C95.9077 10.0286 95.3165 9.92188 94.5926 9.92188H91.9363V23.5H89.0379ZM97.3035 16.25L101.264 23.5H98.0301L94.1395 16.25H97.3035ZM110.942 11.8984C110.869 11.2161 110.562 10.6849 110.02 10.3047C109.483 9.92448 108.786 9.73437 107.926 9.73437C107.322 9.73437 106.804 9.82552 106.371 10.0078C105.939 10.1901 105.608 10.4375 105.379 10.75C105.15 11.0625 105.033 11.4193 105.028 11.8203C105.028 12.1536 105.103 12.4427 105.254 12.6875C105.411 12.9323 105.621 13.1406 105.887 13.3125C106.153 13.4792 106.447 13.6198 106.77 13.7344C107.093 13.849 107.418 13.9453 107.746 14.0234L109.246 14.3984C109.851 14.5391 110.431 14.7292 110.989 14.9687C111.551 15.2083 112.054 15.5104 112.496 15.875C112.944 16.2396 113.299 16.6797 113.559 17.1953C113.819 17.7109 113.95 18.3151 113.95 19.0078C113.95 19.9453 113.71 20.7708 113.231 21.4844C112.752 22.1927 112.059 22.7474 111.153 23.1484C110.252 23.5443 109.161 23.7422 107.879 23.7422C106.635 23.7422 105.554 23.5495 104.637 23.1641C103.726 22.7786 103.012 22.2161 102.496 21.4766C101.986 20.737 101.71 19.8359 101.668 18.7734H104.52C104.562 19.3307 104.733 19.7943 105.036 20.1641C105.338 20.5339 105.731 20.8099 106.215 20.9922C106.705 21.1745 107.252 21.2656 107.856 21.2656C108.486 21.2656 109.038 21.1719 109.512 20.9844C109.991 20.7917 110.366 20.526 110.637 20.1875C110.908 19.8437 111.046 19.4427 111.051 18.9844C111.046 18.5677 110.924 18.224 110.684 17.9531C110.444 17.6771 110.108 17.4479 109.676 17.2656C109.249 17.0781 108.749 16.9115 108.176 16.7656L106.356 16.2969C105.038 15.9583 103.996 15.4453 103.231 14.7578C102.47 14.0651 102.09 13.1458 102.09 12C102.09 11.0573 102.345 10.2318 102.856 9.52344C103.371 8.8151 104.072 8.26562 104.957 7.875C105.843 7.47917 106.845 7.28125 107.965 7.28125C109.101 7.28125 110.095 7.47917 110.95 7.875C111.809 8.26562 112.483 8.8099 112.973 9.50781C113.463 10.2005 113.715 10.9974 113.731 11.8984H110.942ZM124.129 11.8984C124.056 11.2161 123.749 10.6849 123.207 10.3047C122.671 9.92448 121.973 9.73437 121.113 9.73437C120.509 9.73437 119.991 9.82552 119.559 10.0078C119.126 10.1901 118.796 10.4375 118.566 10.75C118.337 11.0625 118.22 11.4193 118.215 11.8203C118.215 12.1536 118.29 12.4427 118.441 12.6875C118.598 12.9323 118.809 13.1406 119.074 13.3125C119.34 13.4792 119.634 13.6198 119.957 13.7344C120.28 13.849 120.605 13.9453 120.934 14.0234L122.434 14.3984C123.038 14.5391 123.618 14.7292 124.176 14.9687C124.738 15.2083 125.241 15.5104 125.684 15.875C126.132 16.2396 126.486 16.6797 126.746 17.1953C127.007 17.7109 127.137 18.3151 127.137 19.0078C127.137 19.9453 126.897 20.7708 126.418 21.4844C125.939 22.1927 125.246 22.7474 124.34 23.1484C123.439 23.5443 122.348 23.7422 121.066 23.7422C119.822 23.7422 118.741 23.5495 117.824 23.1641C116.913 22.7786 116.199 22.2161 115.684 21.4766C115.173 20.737 114.897 19.8359 114.855 18.7734H117.707C117.749 19.3307 117.921 19.7943 118.223 20.1641C118.525 20.5339 118.918 20.8099 119.402 20.9922C119.892 21.1745 120.439 21.2656 121.043 21.2656C121.673 21.2656 122.225 21.1719 122.699 20.9844C123.178 20.7917 123.553 20.526 123.824 20.1875C124.095 19.8437 124.233 19.4427 124.238 18.9844C124.233 18.5677 124.111 18.224 123.871 17.9531C123.632 17.6771 123.296 17.4479 122.863 17.2656C122.436 17.0781 121.936 16.9115 121.363 16.7656L119.543 16.2969C118.225 15.9583 117.184 15.4453 116.418 14.7578C115.658 14.0651 115.277 13.1458 115.277 12C115.277 11.0573 115.533 10.2318 116.043 9.52344C116.559 8.8151 117.259 8.26562 118.145 7.875C119.03 7.47917 120.033 7.28125 121.152 7.28125C122.288 7.28125 123.283 7.47917 124.137 7.875C124.996 8.26562 125.671 8.8099 126.16 9.50781C126.65 10.2005 126.902 10.9974 126.918 11.8984H124.129ZM138.707 7.5H141.605V17.9531C141.605 19.099 141.334 20.1068 140.793 20.9766C140.256 21.8464 139.501 22.526 138.527 23.0156C137.553 23.5 136.415 23.7422 135.113 23.7422C133.806 23.7422 132.665 23.5 131.691 23.0156C130.717 22.526 129.962 21.8464 129.425 20.9766C128.889 20.1068 128.621 19.099 128.621 17.9531V7.5H131.519V17.7109C131.519 18.3776 131.665 18.9714 131.957 19.4922C132.254 20.013 132.67 20.4219 133.207 20.7188C133.743 21.0104 134.379 21.1562 135.113 21.1562C135.847 21.1562 136.483 21.0104 137.019 20.7188C137.561 20.4219 137.977 20.013 138.269 19.4922C138.561 18.9714 138.707 18.3776 138.707 17.7109V7.5Z" fill="white"/>
</svg>
