<svg width="181" height="24" viewBox="0 0 181 24" fill="none" xmlns="http://www.w3.org/2000/svg">
<path d="M10.5 19.65C4.305 19.65 0.525 15.891 0.525 10.263C0.525 4.635 4.305 0.896999 10.5 0.896999C16.695 0.896999 20.475 4.677 20.475 10.263C20.475 15.849 16.695 19.65 10.5 19.65ZM10.5 13.938C12.348 13.938 13.587 12.72 13.587 10.263C13.587 7.806 12.348 6.609 10.5 6.609C8.652 6.609 7.413 7.806 7.413 10.263C7.413 12.72 8.652 13.938 10.5 13.938ZM29.778 15.744C29.358 15.744 28.917 15.723 28.497 15.702C28.497 16.878 28.434 18.075 28.35 19.23H22.68C21.84 13.056 21.777 7.491 22.197 1.317C24.255 1.212 26.292 1.17 28.35 1.17H29.841C36.162 1.338 39.165 3.795 39.165 8.499C39.165 13.14 35.784 15.744 29.778 15.744ZM28.287 10.2C28.875 10.221 29.442 10.221 30.009 10.221C31.563 10.2 32.697 9.78 32.697 8.415C32.697 7.05 31.563 6.714 30.072 6.693C29.505 6.693 28.917 6.693 28.35 6.735V6.777C28.266 7.974 28.245 9.045 28.287 10.2ZM50.1616 19.65C44.1556 19.65 40.2076 16.08 40.2076 10.368C40.2076 4.866 43.8196 1.107 50.1826 0.896999C52.1566 0.833999 54.3196 1.17 55.8316 1.8L55.0966 7.008C52.8706 6.336 50.0986 6.147 48.5446 6.882C47.9146 7.176 47.4316 7.617 47.0746 8.121C49.6786 8.016 52.3456 7.995 54.9496 8.121L54.9916 12.216C52.3666 12.342 49.6576 12.405 47.0116 12.321C47.3896 12.93 47.9776 13.413 48.7336 13.665C50.5396 14.274 53.4166 14.022 55.6216 13.224L56.5876 18.432C54.8866 19.167 52.5766 19.65 50.1616 19.65ZM69.8686 19.23C67.7896 16.983 65.7316 13.728 64.0306 10.389C64.0096 13.371 63.8836 16.248 63.6946 19.23H58.4866C57.6466 13.098 57.5836 7.449 58.0036 1.317H64.1356C66.0256 3.354 68.0416 6.441 69.7426 9.675C69.7426 6.84 69.7846 4.173 69.8476 1.317H75.7696C76.1896 7.449 76.1266 13.098 75.2866 19.23H69.8686ZM85.9958 19.65C82.7198 19.713 79.7378 19.167 77.4908 18.285L78.2258 12.447C80.4098 13.287 83.9378 14.022 85.7018 13.833C86.8988 13.686 86.8988 12.678 85.7438 12.552C80.2838 11.985 77.5958 10.536 77.5958 6.546C77.5958 2.892 80.2838 1.023 84.9038 0.896999C88.1168 0.812999 91.2878 1.233 93.5768 1.905L92.9468 7.659C91.1198 7.029 87.8228 6.441 86.3108 6.651C85.1558 6.819 85.1558 7.638 86.3108 7.785C92.2958 8.52 94.6058 10.137 94.5008 13.854C94.3958 17.382 91.6028 19.545 85.9958 19.65ZM104.063 19.65C100.787 19.713 97.8052 19.167 95.5582 18.285L96.2932 12.447C98.4772 13.287 102.005 14.022 103.769 13.833C104.966 13.686 104.966 12.678 103.811 12.552C98.3512 11.985 95.6632 10.536 95.6632 6.546C95.6632 2.892 98.3512 1.023 102.971 0.896999C106.184 0.812999 109.355 1.233 111.644 1.905L111.014 7.659C109.187 7.029 105.89 6.441 104.378 6.651C103.223 6.819 103.223 7.638 104.378 7.785C110.363 8.52 112.673 10.137 112.568 13.854C112.463 17.382 109.67 19.545 104.063 19.65ZM122.971 19.65C118.414 19.65 114.088 18.012 113.857 10.368C113.773 7.701 113.899 4.173 114.193 1.317H120.493C120.367 4.068 120.304 7.428 120.409 9.843C120.514 12.3 120.997 13.707 122.971 13.707C124.945 13.707 125.428 12.3 125.533 9.843C125.638 7.428 125.575 4.068 125.449 1.317H131.749C132.043 4.173 132.169 7.701 132.085 10.368C131.854 18.012 127.528 19.65 122.971 19.65ZM143.518 19.65C142.09 19.65 140.872 19.335 139.906 18.726C139.906 20.364 139.885 22.002 139.843 23.64H134.026C133.585 17.34 133.606 11.166 133.921 5.475H139.612L139.759 6.336C140.767 5.538 142.006 5.055 143.518 5.055C147.802 5.055 150.385 7.806 150.385 12.363C150.385 16.92 147.802 19.65 143.518 19.65ZM142.09 14.946C143.371 14.946 144.19 14.127 144.19 12.363C144.19 10.578 143.371 9.759 142.09 9.759C140.809 9.759 139.99 10.578 139.99 12.363C139.99 14.127 140.809 14.946 142.09 14.946ZM159.737 19.65C154.529 19.65 151.442 16.731 151.442 12.342C151.442 7.953 154.529 5.055 159.737 5.055C164.945 5.055 168.032 7.953 168.032 12.342C168.032 16.731 164.945 19.65 159.737 19.65ZM159.737 14.946C161.018 14.946 161.837 14.127 161.837 12.342C161.837 10.578 161.018 9.759 159.737 9.759C158.456 9.759 157.637 10.578 157.637 12.342C157.637 14.127 158.456 14.946 159.737 14.946ZM176.849 19.65C173.216 19.545 171.263 17.781 171.137 12.615L171.095 10.641L168.869 10.578V5.475L171.095 5.412L171.179 2.115H177.332L177.374 5.391L180.419 5.475V10.578L177.353 10.662L177.332 11.292C177.29 12.867 177.395 13.539 177.962 13.833C178.697 14.19 179.621 14.022 180.314 13.938L180.629 19.209C179.6 19.503 178.361 19.692 176.849 19.65Z" fill="#1781EE"/>
</svg>
