<svg width="132" height="21" viewBox="0 0 132 21" fill="none" xmlns="http://www.w3.org/2000/svg">
<path d="M15.0527 8.57617C15.0527 13.4775 11.9766 16.2051 7.99805 16.2051C3.99902 16.2051 0.943359 13.457 0.943359 8.57617C0.943359 3.6748 3.99902 0.947266 7.99805 0.947266C11.9766 0.947266 15.0527 3.6748 15.0527 8.57617ZM11.4844 8.57617C11.4844 5.62305 10.1719 4.02344 7.99805 4.02344C5.82422 4.02344 4.51172 5.62305 4.51172 8.57617C4.51172 11.5293 5.82422 13.1289 7.99805 13.1289C10.1719 13.1289 11.4844 11.5293 11.4844 8.57617ZM17.124 16V1.15234H23.1943C26.5371 1.15234 28.5879 3.24414 28.5879 6.25879C28.5879 9.33496 26.4961 11.3447 23.0918 11.3447H20.6104V16H17.124ZM20.6104 8.57617H22.4561C24.0967 8.57617 24.9785 7.65332 24.9785 6.25879C24.9785 4.86426 24.0967 3.98242 22.4561 3.98242H20.6104V8.57617ZM30.3516 16V1.15234H40.626V4.00293H33.8379V7.14062H40.0928V9.99121H33.8379V13.1494H40.6465V16H30.3516ZM55.4531 1.15234V16H52.4795L46.4502 7.28418H46.3477V16H42.8613V1.15234H45.876L51.8438 9.86816H51.9668V1.15234H55.4531ZM65.7275 5.56152C65.6455 4.47461 64.8457 3.83887 63.4102 3.83887C61.9951 3.83887 61.2773 4.4541 61.2568 5.29492C61.2363 6.21777 62.1387 6.66895 63.4717 6.95605L64.7637 7.26367C67.6143 7.89941 69.2754 9.31445 69.2959 11.6934C69.2754 14.5029 67.1016 16.2051 63.4102 16.2051C59.7188 16.2051 57.3193 14.5234 57.2578 11.1191H60.6211C60.7031 12.5547 61.7695 13.293 63.3691 13.293C64.8457 13.293 65.7275 12.6367 65.748 11.6934C65.7275 10.832 64.9688 10.3809 63.3281 10.0117L61.7695 9.64258C59.2061 9.04785 57.6475 7.77637 57.6475 5.54102C57.627 2.79297 60.0674 0.947266 63.4307 0.947266C66.8555 0.947266 69.0498 2.81348 69.0908 5.56152H65.7275ZM79.1191 5.56152C79.0371 4.47461 78.2373 3.83887 76.8018 3.83887C75.3867 3.83887 74.6689 4.4541 74.6484 5.29492C74.6279 6.21777 75.5303 6.66895 76.8633 6.95605L78.1553 7.26367C81.0059 7.89941 82.667 9.31445 82.6875 11.6934C82.667 14.5029 80.4932 16.2051 76.8018 16.2051C73.1104 16.2051 70.7109 14.5234 70.6494 11.1191H74.0127C74.0947 12.5547 75.1611 13.293 76.7607 13.293C78.2373 13.293 79.1191 12.6367 79.1396 11.6934C79.1191 10.832 78.3604 10.3809 76.7197 10.0117L75.1611 9.64258C72.5977 9.04785 71.0391 7.77637 71.0391 5.54102C71.0186 2.79297 73.459 0.947266 76.8223 0.947266C80.2471 0.947266 82.4414 2.81348 82.4824 5.56152H79.1191ZM93.4951 1.15234H97.002V10.7295C97.002 14.0518 94.4795 16.2051 90.7471 16.2051C86.9941 16.2051 84.4922 14.0518 84.4922 10.7295V1.15234H87.9785V10.4424C87.9785 12.0215 89.1064 13.1494 90.7471 13.1494C92.3877 13.1494 93.4951 12.0215 93.4951 10.4424V1.15234ZM99.2373 20.1836V4.86426H102.662V6.77148H102.785C103.195 5.7666 104.159 4.7207 105.923 4.7207C108.281 4.7207 110.373 6.52539 110.373 10.4424C110.373 14.2158 108.384 16.1641 105.923 16.1641C104.2 16.1641 103.216 15.2002 102.785 14.1953H102.703V20.1836H99.2373ZM102.621 10.4219C102.621 12.2676 103.4 13.457 104.733 13.457C106.087 13.457 106.825 12.2676 106.825 10.4219C106.825 8.61719 106.087 7.42773 104.733 7.42773C103.4 7.42773 102.621 8.57617 102.621 10.4219ZM117.366 16.2051C113.88 16.2051 111.768 13.8877 111.768 10.4629C111.768 7.03809 113.88 4.7207 117.366 4.7207C120.853 4.7207 122.965 7.03809 122.965 10.4629C122.965 13.8877 120.853 16.2051 117.366 16.2051ZM117.387 13.6006C118.699 13.6006 119.438 12.3086 119.438 10.4424C119.438 8.57617 118.699 7.28418 117.387 7.28418C116.033 7.28418 115.295 8.57617 115.295 10.4424C115.295 12.3086 116.033 13.6006 117.387 13.6006ZM130.963 4.86426V7.40723H128.933V12.5137C128.933 13.2109 129.281 13.416 129.876 13.4365C130.163 13.457 130.717 13.416 131.106 13.3955V16.041C130.778 16.082 130.204 16.1641 129.384 16.1641C126.943 16.1641 125.467 15.1592 125.487 12.9033V7.40723H123.99V4.86426H125.487V2.19824H128.933V4.86426H130.963Z" fill="#1781EE"/>
</svg>
