<svg width="25" height="25" viewBox="0 0 25 25" fill="none" xmlns="http://www.w3.org/2000/svg">
<path fill-rule="evenodd" clip-rule="evenodd" d="M17.0705 9.03527C17.0705 12.6608 14.1315 15.5998 10.506 15.5998C6.88046 15.5998 3.94141 12.6608 3.94141 9.03527C3.94141 5.40976 6.88046 2.4707 10.506 2.4707C14.1315 2.4707 17.0705 5.40976 17.0705 9.03527ZM15.4962 14.7205C14.1644 15.8904 12.418 16.5998 10.506 16.5998C6.32818 16.5998 2.94141 13.2131 2.94141 9.03527C2.94141 4.85748 6.32818 1.4707 10.506 1.4707C14.6838 1.4707 18.0705 4.85748 18.0705 9.03527C18.0705 10.9473 17.3611 12.6937 16.1912 14.0255C16.2164 14.0428 16.2404 14.0626 16.2628 14.085L20.5854 18.4076C20.7807 18.6029 20.7807 18.9194 20.5854 19.1147C20.3901 19.31 20.0736 19.31 19.8783 19.1147L15.5557 14.7921C15.5333 14.7697 15.5135 14.7457 15.4962 14.7205Z" fill="#1781EE"/>
<path d="M15.4962 14.7205L15.7025 14.5793L15.5432 14.3465L15.3312 14.5327L15.4962 14.7205ZM16.1912 14.0255L16.0034 13.8605L15.8172 14.0725L16.05 14.2318L16.1912 14.0255ZM20.5854 18.4076L20.7622 18.2308V18.2308L20.5854 18.4076ZM20.5854 19.1147L20.7622 19.2915L20.7622 19.2915L20.5854 19.1147ZM19.8783 19.1147L19.7015 19.2915H19.7015L19.8783 19.1147ZM15.5557 14.7921L15.3789 14.9689L15.3789 14.9689L15.5557 14.7921ZM10.506 15.8498C14.2696 15.8498 17.3205 12.7989 17.3205 9.03527H16.8205C16.8205 12.5227 13.9934 15.3498 10.506 15.3498V15.8498ZM3.69141 9.03527C3.69141 12.7989 6.74239 15.8498 10.506 15.8498V15.3498C7.01853 15.3498 4.19141 12.5227 4.19141 9.03527H3.69141ZM10.506 2.2207C6.74239 2.2207 3.69141 5.27169 3.69141 9.03527H4.19141C4.19141 5.54783 7.01853 2.7207 10.506 2.7207V2.2207ZM17.3205 9.03527C17.3205 5.27169 14.2696 2.2207 10.506 2.2207V2.7207C13.9934 2.7207 16.8205 5.54783 16.8205 9.03527H17.3205ZM10.506 16.8498C12.481 16.8498 14.2855 16.1168 15.6612 14.9083L15.3312 14.5327C14.0433 15.6641 12.355 16.3498 10.506 16.3498V16.8498ZM2.69141 9.03527C2.69141 13.3511 6.19011 16.8498 10.506 16.8498V16.3498C6.46625 16.3498 3.19141 13.075 3.19141 9.03527H2.69141ZM10.506 1.2207C6.19011 1.2207 2.69141 4.7194 2.69141 9.03527H3.19141C3.19141 4.99555 6.46625 1.7207 10.506 1.7207V1.2207ZM18.3205 9.03527C18.3205 4.7194 14.8218 1.2207 10.506 1.2207V1.7207C14.5457 1.7207 17.8205 4.99555 17.8205 9.03527H18.3205ZM16.379 14.1905C17.5875 12.8148 18.3205 11.0103 18.3205 9.03527H17.8205C17.8205 10.8843 17.1348 12.5725 16.0034 13.8605L16.379 14.1905ZM16.05 14.2318C16.0625 14.2404 16.0746 14.2503 16.086 14.2618L16.4396 13.9082C16.4062 13.8748 16.3703 13.8451 16.3324 13.8192L16.05 14.2318ZM16.086 14.2618L20.4086 18.5844L20.7622 18.2308L16.4396 13.9082L16.086 14.2618ZM20.4086 18.5844C20.5063 18.682 20.5063 18.8403 20.4086 18.9379L20.7622 19.2915C21.0551 18.9986 21.0551 18.5237 20.7622 18.2308L20.4086 18.5844ZM20.4086 18.9379C20.311 19.0356 20.1527 19.0356 20.0551 18.9379L19.7015 19.2915C19.9944 19.5844 20.4693 19.5844 20.7622 19.2915L20.4086 18.9379ZM20.0551 18.9379L15.7325 14.6153L15.3789 14.9689L19.7015 19.2915L20.0551 18.9379ZM15.7325 14.6153C15.7211 14.6039 15.7111 14.5918 15.7025 14.5793L15.2899 14.8617C15.3158 14.8996 15.3455 14.9355 15.3789 14.9689L15.7325 14.6153Z" fill="#1781EE"/>
</svg>
