<svg width="360" height="91" viewBox="0 0 360 91" fill="none" xmlns="http://www.w3.org/2000/svg">
<path d="M96.8661 11.747C93.5902 11.747 90.8924 12.4593 88.7727 13.884C86.6531 15.3087 85.5932 17.4796 85.5932 20.3968C85.5932 23.2461 86.6531 25.451 88.7727 27.0113C90.8924 28.5038 95.3887 30.132 102.262 31.8959C109.199 33.6598 114.402 36.136 117.87 39.3246C121.403 42.5131 123.169 47.2281 123.169 53.4695C123.169 59.6431 120.953 64.6634 116.521 68.5303C112.089 72.3973 106.276 74.3308 99.0821 74.3308C88.5479 74.3308 79.2021 70.4977 71.0446 62.8316L78.1744 53.7748C84.983 60.0162 92.0486 63.1369 99.3711 63.1369C103.032 63.1369 105.923 62.3228 108.043 60.6946C110.226 58.9986 111.318 56.7937 111.318 54.0801C111.318 51.2986 110.291 49.1616 108.235 47.6691C106.244 46.1087 102.775 44.718 97.8295 43.4968C92.8836 42.2078 89.126 41.0545 86.5567 40.0369C83.9874 38.9514 81.7072 37.5607 79.716 35.8646C75.7335 32.6761 73.7423 27.7915 73.7423 21.2109C73.7423 14.6303 75.9905 9.57606 80.4867 6.0483C85.0473 2.45271 90.6676 0.654907 97.3478 0.654907C101.651 0.654907 105.923 1.40116 110.162 2.89368C114.402 4.38619 118.063 6.48927 121.146 9.20293L115.076 18.2598C113.085 16.3602 110.387 14.7999 106.983 13.5787C103.578 12.3576 100.206 11.747 96.8661 11.747Z" fill="#1781EE"/>
<path d="M154.133 20.4166C160.538 20.4166 166.016 22.777 170.565 27.4979C175.115 32.2187 177.39 38.5025 177.39 46.3493C177.39 54.1961 175.115 60.5756 170.565 65.4878C166.075 70.4001 160.807 72.8562 154.761 72.8562C148.775 72.8562 143.387 70.0492 138.598 64.4352V90.655H128.541V21.1822H138.598V30.0816C142.549 23.6383 147.727 20.4166 154.133 20.4166ZM138.419 46.7321C138.419 51.5805 139.796 55.5677 142.549 58.6937C145.303 61.7558 148.655 63.2869 152.606 63.2869C156.557 63.2869 159.999 61.7558 162.933 58.6937C165.866 55.6315 167.333 51.6762 167.333 46.8278C167.333 41.9156 165.896 37.8646 163.022 34.6748C160.149 31.4213 156.707 29.7945 152.696 29.7945C148.685 29.7945 145.303 31.4213 142.549 34.6748C139.796 37.8646 138.419 41.8837 138.419 46.7321Z" fill="#1781EE"/>
<path d="M225.057 72.0906H215.898V65.2965C211.947 70.3363 206.649 72.8562 200.004 72.8562C195.036 72.8562 190.905 71.357 187.613 68.3586C184.38 65.3603 182.764 61.3731 182.764 56.3971C182.764 51.3572 184.5 47.5933 187.972 45.1053C191.444 42.6173 196.143 41.3733 202.07 41.3733H215.09V39.4595C215.09 32.6972 211.558 29.316 204.494 29.316C200.064 29.316 195.455 31.0385 190.666 34.4834L186.176 27.785C191.983 22.8727 198.568 20.4166 205.931 20.4166C211.558 20.4166 216.138 21.9477 219.669 25.0099C223.261 28.0082 225.057 32.761 225.057 39.2681V72.0906ZM215 53.1435V48.8373H203.686C196.443 48.8373 192.821 51.2615 192.821 56.11C192.821 58.598 193.719 60.5118 195.515 61.8515C197.311 63.1274 199.795 63.7654 202.968 63.7654C206.2 63.7654 209.014 62.8085 211.408 60.8946C213.803 58.9808 215 56.3971 215 53.1435Z" fill="#1781EE"/>
<path d="M255.02 72.8562C248.375 72.8562 242.658 70.4639 237.869 65.6792C233.08 60.8308 230.686 54.5151 230.686 46.7321C230.686 38.9491 233.17 32.6334 238.138 27.785C243.167 22.8727 249.273 20.4166 256.457 20.4166C263.64 20.4166 269.716 23.0641 274.685 28.3591L268.758 36.1102C264.628 32.2825 260.467 30.3687 256.277 30.3687C252.087 30.3687 248.435 31.8678 245.322 34.8662C242.269 37.8008 240.743 41.6285 240.743 46.3493C240.743 51.0064 242.269 54.9617 245.322 58.2152C248.375 61.4688 252.117 63.0955 256.546 63.0955C261.036 63.0955 265.256 60.9265 269.207 56.5884L275.134 63.4783C269.327 69.7302 262.622 72.8562 255.02 72.8562Z" fill="#1781EE"/>
<path d="M328.033 51.3253H290.589C290.828 55.0255 292.415 58.0238 295.348 60.3204C298.281 62.5533 301.634 63.6697 305.405 63.6697C311.391 63.6697 315.941 61.6601 319.054 57.6411L324.801 64.3395C319.652 70.0173 312.948 72.8562 304.687 72.8562C297.982 72.8562 292.265 70.4958 287.536 65.7749C282.867 60.9903 280.532 54.6108 280.532 46.6364C280.532 38.5982 282.927 32.2187 287.716 27.4979C292.505 22.777 298.132 20.4166 304.597 20.4166C311.122 20.4166 316.659 22.5219 321.209 26.7323C325.759 30.879 328.033 36.6206 328.033 43.957V51.3253ZM290.589 42.9044H317.976C317.976 38.6301 316.719 35.3447 314.205 33.0481C311.691 30.7514 308.578 29.6031 304.866 29.6031C301.215 29.6031 297.922 30.8152 294.989 33.2394C292.056 35.5999 290.589 38.8215 290.589 42.9044Z" fill="#1781EE"/>
<path d="M358.781 31.2297C353.812 31.2297 350.071 32.9522 347.557 36.3971C345.042 39.8421 343.785 44.4672 343.785 50.2725V72.0905H333.728V21.182H343.785V31.4211C345.402 28.2314 347.856 25.7994 350.34 24.2993C353.478 22.4048 356.887 22.4686 360 22.4048V31.2297C359.82 31.2297 358.961 31.2297 358.781 31.2297Z" fill="#1781EE"/>
<g opacity="0.6">
<path d="M25.3057 23.3617L51.3946 42.5632L51.3946 75.3861L-2.25177e-06 75.3861L1.57565e-06 42.5632L25.3057 23.3617Z" fill="#1781EE"/>
</g>
<g opacity="0.6">
<path d="M25.3057 52.1519L51.3946 33.1451L51.3946 0.654915L-2.25177e-06 0.654914L1.57565e-06 33.1451L25.3057 52.1519Z" fill="#1781EE"/>
</g>
</svg>
