<svg width="361" height="91" viewBox="0 0 361 91" fill="none" xmlns="http://www.w3.org/2000/svg">
<path d="M97.2621 11.4446C93.9862 11.4446 91.2884 12.1569 89.1687 13.5816C87.0491 15.0062 85.9892 17.1772 85.9892 20.0944C85.9892 22.9437 87.0491 25.1485 89.1687 26.7089C91.2884 28.2014 95.7847 29.8296 102.658 31.5935C109.595 33.3574 114.798 35.8336 118.266 39.0221C121.799 42.2107 123.565 46.9257 123.565 53.1671C123.565 59.3407 121.349 64.3609 116.917 68.2279C112.485 72.0949 106.672 74.0283 99.4781 74.0283C88.9439 74.0283 79.5981 70.1953 71.4406 62.5292L78.5704 53.4724C85.379 59.7138 92.4446 62.8345 99.7671 62.8345C103.428 62.8345 106.319 62.0204 108.439 60.3922C110.622 58.6962 111.714 56.4913 111.714 53.7777C111.714 50.9962 110.687 48.8591 108.631 47.3666C106.64 45.8063 103.171 44.4155 98.2255 43.1944C93.2796 41.9054 89.522 40.7521 86.9527 39.7345C84.3834 38.649 82.1032 37.2583 80.112 35.5622C76.1295 32.3737 74.1383 27.4891 74.1383 20.9085C74.1383 14.3278 76.3865 9.27363 80.8827 5.74587C85.4433 2.15028 91.0636 0.352478 97.7438 0.352478C102.047 0.352478 106.319 1.09873 110.558 2.59125C114.798 4.08376 118.459 6.18684 121.542 8.90051L115.472 17.9573C113.481 16.0578 110.783 14.4974 107.379 13.2763C103.974 12.0551 100.602 11.4446 97.2621 11.4446Z" fill="white"/>
<path d="M154.529 20.1141C160.934 20.1141 166.412 22.4746 170.961 27.1954C175.511 31.9162 177.786 38.2 177.786 46.0468C177.786 53.8936 175.511 60.2731 170.961 65.1854C166.471 70.0976 161.203 72.5537 155.157 72.5537C149.171 72.5537 143.783 69.7467 138.994 64.1327V90.3525H128.937V20.8797H138.994V29.7791C142.945 23.3358 148.123 20.1141 154.529 20.1141ZM138.815 46.4296C138.815 51.278 140.192 55.2652 142.945 58.3912C145.699 61.4533 149.051 62.9844 153.002 62.9844C156.953 62.9844 160.395 61.4533 163.329 58.3912C166.262 55.329 167.729 51.3737 167.729 46.5253C167.729 41.6131 166.292 37.5621 163.418 34.3723C160.545 31.1188 157.103 29.492 153.092 29.492C149.081 29.492 145.699 31.1188 142.945 34.3723C140.192 37.5621 138.815 41.5812 138.815 46.4296Z" fill="white"/>
<path d="M225.453 71.7882H216.294V64.994C212.343 70.0338 207.045 72.5537 200.4 72.5537C195.432 72.5537 191.301 71.0545 188.009 68.0561C184.776 65.0578 183.16 61.0706 183.16 56.0946C183.16 51.0548 184.896 47.2908 188.368 44.8028C191.84 42.3148 196.539 41.0708 202.466 41.0708H215.486V39.157C215.486 32.3947 211.954 29.0135 204.89 29.0135C200.46 29.0135 195.851 30.736 191.062 34.181L186.572 27.4825C192.379 22.5702 198.964 20.1141 206.327 20.1141C211.954 20.1141 216.534 21.6452 220.065 24.7074C223.657 27.7057 225.453 32.4585 225.453 38.9656V71.7882ZM215.396 52.841V48.5348H204.082C196.839 48.5348 193.217 50.9591 193.217 55.8075C193.217 58.2955 194.115 60.2093 195.911 61.549C197.707 62.8249 200.191 63.4629 203.364 63.4629C206.596 63.4629 209.41 62.506 211.804 60.5921C214.199 58.6783 215.396 56.0946 215.396 52.841Z" fill="white"/>
<path d="M255.416 72.5537C248.771 72.5537 243.054 70.1614 238.265 65.3767C233.476 60.5283 231.082 54.2126 231.082 46.4296C231.082 38.6466 233.566 32.3309 238.534 27.4825C243.563 22.5702 249.669 20.1141 256.853 20.1141C264.036 20.1141 270.112 22.7616 275.081 28.0566L269.154 35.8077C265.024 31.98 260.863 30.0662 256.673 30.0662C252.483 30.0662 248.831 31.5654 245.718 34.5637C242.665 37.4983 241.139 41.326 241.139 46.0468C241.139 50.7039 242.665 54.6592 245.718 57.9127C248.771 61.1663 252.513 62.793 256.942 62.793C261.432 62.793 265.652 60.624 269.603 56.2859L275.53 63.1758C269.723 69.4277 263.018 72.5537 255.416 72.5537Z" fill="white"/>
<path d="M328.429 51.0229H290.985C291.224 54.723 292.811 57.7213 295.744 60.018C298.677 62.2508 302.03 63.3672 305.801 63.3672C311.787 63.3672 316.337 61.3577 319.45 57.3386L325.197 64.037C320.048 69.7148 313.344 72.5537 305.083 72.5537C298.378 72.5537 292.661 70.1933 287.932 65.4724C283.263 60.6878 280.928 54.3083 280.928 46.3339C280.928 38.2957 283.323 31.9162 288.112 27.1954C292.901 22.4746 298.528 20.1141 304.993 20.1141C311.518 20.1141 317.055 22.2194 321.605 26.4298C326.155 30.5765 328.429 36.3181 328.429 43.6545V51.0229ZM290.985 42.6019H318.372C318.372 38.3276 317.115 35.0422 314.601 32.7456C312.087 30.4489 308.974 29.3006 305.262 29.3006C301.611 29.3006 298.318 30.5127 295.385 32.9369C292.452 35.2974 290.985 38.519 290.985 42.6019Z" fill="white"/>
<path d="M359.177 30.9274C354.208 30.9274 350.467 32.6498 347.953 36.0948C345.438 39.5397 344.181 44.1648 344.181 49.9702V71.7881H334.124V20.8796H344.181V31.1187C345.798 27.929 348.252 25.497 350.736 23.9969C353.874 22.1024 357.283 22.1662 360.396 22.1024V30.9274C360.216 30.9274 359.357 30.9274 359.177 30.9274Z" fill="white"/>
<g opacity="0.6">
<path d="M25.7017 23.0592L51.7906 42.2607L51.7906 75.0836L0.395994 75.0836L0.395998 42.2607L25.7017 23.0592Z" fill="white"/>
</g>
<g opacity="0.6">
<path d="M25.7017 51.8494L51.7906 32.8426L51.7906 0.352425L0.395994 0.352424L0.395998 32.8426L25.7017 51.8494Z" fill="white"/>
</g>
</svg>
