<svg width="24" height="25" viewBox="0 0 24 25" fill="none" xmlns="http://www.w3.org/2000/svg">
<g id="Clock 01">
<path id="Icon" d="M15.5588 15.6987C16.0827 15.8733 16.649 15.5902 16.8237 15.0662C16.9983 14.5423 16.7152 13.976 16.1912 13.8013L15.5588 15.6987ZM12.5 13.625H11.5C11.5 14.0554 11.7754 14.4376 12.1838 14.5737L12.5 13.625ZM13.5 8.92087C13.5 8.36858 13.0523 7.92087 12.5 7.92087C11.9477 7.92087 11.5 8.36858 11.5 8.92087H13.5ZM16.1912 13.8013L12.8162 12.6763L12.1838 14.5737L15.5588 15.6987L16.1912 13.8013ZM13.5 13.625V8.92087H11.5V13.625H13.5ZM20.5 12.5C20.5 16.9183 16.9183 20.5 12.5 20.5V22.5C18.0228 22.5 22.5 18.0228 22.5 12.5H20.5ZM12.5 20.5C8.08172 20.5 4.5 16.9183 4.5 12.5H2.5C2.5 18.0228 6.97715 22.5 12.5 22.5V20.5ZM4.5 12.5C4.5 8.08172 8.08172 4.5 12.5 4.5V2.5C6.97715 2.5 2.5 6.97715 2.5 12.5H4.5ZM12.5 4.5C16.9183 4.5 20.5 8.08172 20.5 12.5H22.5C22.5 6.97715 18.0228 2.5 12.5 2.5V4.5Z" fill="black"/>
</g>
</svg>
