<svg width="24" height="25" viewBox="0 0 24 25" fill="none" xmlns="http://www.w3.org/2000/svg">
<g id="Users Profiles 02">
<path id="Icon" d="M19.1999 14.1855C20.4672 15.1324 21.5999 17.5165 21.5999 18.9855C21.5999 19.4431 21.266 19.8141 20.8541 19.8141H20.3999M15.5999 10.3043C16.4197 9.83006 16.9713 8.94365 16.9713 7.9284C16.9713 6.91316 16.4197 6.02675 15.5999 5.55249M3.14567 19.8141H16.2827C16.6946 19.8141 17.0285 19.4431 17.0285 18.9855C17.0285 16.1089 14.6252 13.7769 9.71419 13.7769C4.80317 13.7769 2.3999 16.1089 2.3999 18.9855C2.3999 19.4431 2.7338 19.8141 3.14567 19.8141ZM12.457 7.9284C12.457 9.44324 11.229 10.6713 9.71419 10.6713C8.19935 10.6713 6.97133 9.44324 6.97133 7.9284C6.97133 6.41357 8.19935 5.18555 9.71419 5.18555C11.229 5.18555 12.457 6.41357 12.457 7.9284Z" stroke="black" stroke-width="2" stroke-linecap="round"/>
</g>
</svg>
